<svg id="Camada_1" data-name="Camada 1" xmlns="http://www.w3.org/2000/svg" viewBox="0 0 125.21 77.4"><path d="M118.21,78.54l-.14-14.65a4.46,4.46,0,0,1,4.46-4.51h0A4.47,4.47,0,0,0,127,54.91V6.47A4.47,4.47,0,0,0,122.53,2H7.25A4.47,4.47,0,0,0,2.79,6.47V54.91a4.46,4.46,0,0,0,4.46,4.47H96.81a4.44,4.44,0,0,1,3.12,1.27l18.28,17.89" transform="translate(-2.29 -1.5)" style="fill:#fff;stroke:#2dabe3;stroke-miterlimit:10"/><text transform="translate(5.62 42.73) scale(0.89 1)" style="font-size:43.03908920288086px;fill:#2dabe3;font-family:ArialMT, Arial">ez<tspan x="45.46" y="0" style="fill:#090b0d;stroke:#010101;stroke-miterlimit:10">help</tspan></text></svg>